Coordinates
version=1
nRows=16
nColumns=36
inDegrees=yes

Units are S.I. units (second, meters, Newtons, ...)
If the header above contains a line with 'inDegrees', this indicates whether rotational values are in degrees (yes) or radians (no).

endheader
time	pelvis_tilt	pelvis_list	pelvis_rotation	pelvis_tx	pelvis_ty	pelvis_tz	hip_flexion_r	hip_adduction_r	hip_rotation_r	knee_angle_r	knee_angle_r_beta	ankle_angle_r	subtalar_angle_r	mtp_angle_r	hip_flexion_l	hip_adduction_l	hip_rotation_l	knee_angle_l	knee_angle_l_beta	ankle_angle_l	subtalar_angle_l	mtp_angle_l	lumbar_extension	lumbar_bending	lumbar_rotation	arm_flex_r	arm_add_r	arm_rot_r	elbow_flex_r	pro_sup_r	arm_flex_l	arm_add_l	arm_rot_l	elbow_flex_l	pro_sup_l
      4.31666670	     -3.02230819	     -0.02364096	     -5.38822929	      1.40178935	      0.97272880	     -0.20115353	     -0.32102958	     -5.62068741	    -17.77018765	      4.87193728	      0.08503135	     16.07551434	      1.51069698	     -7.49999987	     -1.22145992	     -4.31601613	    -13.51558791	      1.58849618	      0.02772449	     14.63797699	      6.51513197	     -7.49999987	     -9.26920097	     -2.15404574	      5.21978500	      0.12954187	    -14.55154305	      1.08431189	     30.69608188	     97.84324027	      3.18280571	    -14.53269551	     -0.17499121	     34.57734078	     96.26464071
      4.33333330	     -2.94213436	      0.19877642	     -5.17767232	      1.39652929	      0.96912117	     -0.20325964	     -0.28254263	     -5.94446789	    -17.72375768	      5.00610583	      0.08737303	     16.49019865	      1.38665874	     -7.49999987	     -1.27018644	     -3.96188236	    -13.37630094	      1.36772007	      0.02387122	     14.76525921	      6.60353459	     -7.49999987	     -9.09369188	     -2.20608566	      5.03714520	      0.34469617	    -14.63097469	      0.96066706	     30.76683768	     97.86863484	      3.50525336	    -14.41406973	     -0.18398445	     34.78150425	     96.31224325
      4.35000000	     -2.60013661	      0.35104197	     -5.17840568	      1.39954416	      0.96090570	     -0.20099564	     -0.56071264	     -6.19577404	    -17.38966898	      5.11282562	      0.08923564	     16.78110782	      0.94172268	     -7.49999987	     -1.66181325	     -3.67961666	    -13.32889544	      1.16051916	      0.02025488	     14.86706206	      6.46709384	     -7.49999987	     -9.28672412	     -2.27993508	      5.01445871	      0.30032179	    -14.65252295	      0.78900580	     31.38241851	     95.82981908	      3.50263744	    -14.29862408	     -0.31574492	     35.73303795	     94.32619778
      4.36666670	     -2.71129213	      0.53556736	     -5.08828382	      1.39569679	      0.96664953	     -0.19708898	     -0.29169779	     -6.43652104	    -17.56546476	      5.38109681	      0.09391786	     17.24629380	      1.30163616	     -7.49999987	     -1.44007916	     -3.50344606	    -13.25581782	      1.09100718	      0.01904167	     14.85753776	      6.56325128	     -7.49999987	     -8.95000643	     -2.43972262	      4.94788837	      0.41366412	    -14.53540240	      0.72665956	     31.06131168	     96.27335566	      3.66240152	    -14.17358244	     -0.36572420	     35.75478536	     94.77111319
      4.38333330	     -2.62703618	      0.58645504	     -5.00937693	      1.39921030	      0.97032523	     -0.20097200	     -0.36708231	     -6.53054008	    -17.45352274	      5.48595374	      0.09574796	     17.28726359	      1.34468667	     -7.49999987	     -1.50711005	     -3.43612666	    -13.19055457	      1.04374664	      0.01821682	     14.81171124	      6.62013432	     -7.49999987	     -8.82195789	     -2.41168660	      4.92070533	      0.37643809	    -14.44463143	      0.74341018	     31.03634552	     96.31373495	      3.60676627	    -13.98318120	     -0.33347820	     35.76275326	     94.81080789
      4.40000000	     -2.60862692	      0.75570315	     -4.95548073	      1.39942249	      0.97423547	     -0.20082679	     -0.29588787	     -6.76079721	    -17.40444818	      5.74287962	      0.10023216	     17.67591057	      1.47879606	     -7.49999987	     -1.57278941	     -3.24324744	    -12.99695224	      0.86364300	      0.01507341	     14.58709319	      6.74124802	     -7.49999987	     -8.59340257	     -2.55610716	      4.15768127	      1.27300857	    -14.07204080	      0.42676839	     29.67096959	    102.74680786	      2.66880973	    -13.43325337	     -3.67700043	     36.27278795	    101.34677418
      4.41666670	     -2.60343285	      0.86992513	     -4.88320538	      1.39876475	      0.97442108	     -0.20144362	     -0.25098901	     -6.90814299	    -17.25134960	      5.91159542	      0.10317680	     17.92272755	      1.48612162	     -7.49999987	     -1.59220066	     -3.10541044	    -12.87129432	      0.78808514	      0.01375468	     14.45103531	      6.81789946	     -7.49999987	     -8.36999119	     -2.61600402	      3.96896825	      1.57707048	    -13.88387302	      0.71247340	     28.90774093	    103.34712995	      2.26161171	    -13.13804229	     -4.40701290	     35.97023102	    102.11813702
      4.43333330	     -2.57832005	      0.96469639	     -4.86241499	      1.39880205	      0.97337995	     -0.20067072	     -0.21331248	     -7.02522715	    -17.12776830	      6.08621002	      0.10622440	     18.16186194	      1.48145473	     -7.49999987	     -1.59828450	     -2.99735970	    -12.77325383	      0.77466060	      0.01352038	     14.28503437	      6.82801811	     -7.49999987	     -8.17319972	     -2.65988197	      3.70087243	      2.04245300	    -13.70592435	      1.39401235	     28.18020570	    103.91267671	      1.69811360	    -12.86467669	     -5.46062739	     35.73090966	    102.58276848
      4.45000000	     -2.56752731	      1.07465936	     -4.86813792	      1.39814475	      0.97112655	     -0.20102209	     -0.14236743	     -7.16920912	    -16.99018893	      6.24615873	      0.10901604	     18.34847561	      1.45986917	     -7.49999987	     -1.56957957	     -2.86277371	    -12.72888568	      0.78451125	      0.01369230	     14.23635701	      6.91725387	     -7.49999987	     -8.02958005	     -2.71124709	      3.56206315	      2.39012817	    -13.54109490	      1.89771435	     27.54084274	    104.32059840	      1.22035544	    -12.57077675	     -6.12813457	     35.43084198	    102.99648278
      4.46666670	     -2.53011404	      1.15181392	     -4.90634239	      1.39845854	      0.97337886	     -0.20115208	     -0.08741579	     -7.27330055	    -16.73440868	      6.43101533	      0.11224239	     18.46622366	      1.33721971	     -7.49999987	     -1.55688485	     -2.77588814	    -12.75448161	      0.80862980	      0.01411325	     14.03027304	      6.89687097	     -7.49999987	     -7.93582186	     -2.73064059	      3.27188180	      3.02896215	    -13.37961407	      2.91972080	     26.76031860	    104.59990241	      0.54766848	    -12.25833421	     -7.13173626	     35.16398871	    103.38757327
      4.48333330	     -2.48830315	      1.23911968	     -4.82412694	      1.39804631	      0.97344593	     -0.20115018	     -0.09115054	     -7.38316925	    -16.71144508	      6.56897793	      0.11465029	     18.71843762	      1.43498545	     -7.49999987	     -1.54294063	     -2.67732821	    -12.53610278	      0.85404382	      0.01490588	     14.00028779	      6.91424114	     -7.49999987	     -7.88045075	     -2.75471773	      3.03650228	      3.41904175	    -13.22848759	      3.70888302	     26.28705479	    105.05526608	      0.12761253	    -12.03724611	     -7.79805149	     34.77593103	    103.76808164
      4.50000000	     -2.51274059	      1.29198255	     -4.84379297	      1.39837093	      0.97518517	     -0.20069226	     -0.00173024	     -7.44595275	    -16.54577634	      6.67624487	      0.11652245	     18.80867977	      1.37848435	     -7.49999987	     -1.47119055	     -2.62596760	    -12.53516027	      0.90497433	      0.01579478	     13.89823159	      7.02652436	     -7.49999987	     -7.79990245	     -2.74568195	      2.79414528	      3.87803895	    -13.08451500	      4.51292161	     25.79898215	    105.35822506	     -0.42541148	    -11.80496078	     -8.63660333	     34.61800033	    104.18511871
      4.51666670	     -2.49757038	      1.35216054	     -4.87932660	      1.39793169	      0.97281232	     -0.20097756	      0.07131157	     -7.53177254	    -16.41981311	      6.80772963	      0.11881730	     18.93750456	      1.37937672	     -7.49999987	     -1.42057356	     -2.55482841	    -12.54257667	      0.97977898	      0.01710037	     13.79474457	      7.05820412	     -7.49999987	     -7.78933232	     -2.74814377	      2.58708869	      4.24496008	    -12.91251840	      5.28556656	     25.36519691	    105.44643686	     -0.90303334	    -11.58974986	     -9.28335514	     34.21283971	    104.36522847
      4.53333330	     -2.49199064	      1.39772446	     -4.87461106	      1.39846813	      0.97420076	     -0.20039480	      0.10761387	     -7.59193178	    -16.31342882	      6.90471669	      0.12051004	     19.02955985	      1.44834583	     -7.49999987	     -1.37022716	     -2.51489301	    -12.44324330	      1.01716609	      0.01775290	     13.64664073	      7.07493279	     -7.49999987	     -7.76687350	     -2.75342803	      2.43741406	      4.32762351	    -12.77241341	      5.87877805	     25.29392767	    105.77921254	     -1.28434314	    -11.39362653	     -9.79416467	     33.81052785	    104.64804137
      4.55000000	     -2.48206819	      1.41795191	     -4.87194355	      1.39781102	      0.97148885	     -0.20012624	      0.14156776	     -7.61772953	    -16.26101824	      6.97916237	      0.12180936	     19.14937032	      1.54715738	     -7.49999987	     -1.29595178	     -2.49902568	    -12.32699028	      1.11679987	      0.01949183	     13.58064718	      6.97356372	     -7.49999987	     -7.75542520	     -2.71943156	      2.22341472	      4.48340742	    -12.59525338	      6.42516305	     25.31689137	    105.99822973	     -1.72150492	    -11.17750913	    -10.46579269	     33.50704280	    104.69488922
      4.56666670	     -2.44494700	      1.43347838	     -4.92333526	      1.39815383	      0.97106273	     -0.19993016	      0.15903220	     -7.64840882	    -16.15588041	      7.06525605	      0.12331198	     19.24465941	      1.64339964	     -7.49999987	     -1.26236691	     -2.47208444	    -12.34486238	      1.20336312	      0.02100265	     13.54023432	      6.94916173	     -7.49999987	     -7.79788831	     -2.69954103	      2.22508476	      4.45531965	    -12.44696904	      6.82422520	     25.38864798	    105.97313298	     -1.98897135	    -11.00018410	    -10.60933971	     33.04458456	    104.71752685
